<svg xmlns="http://www.w3.org/2000/svg" viewBox="0 0 512 512" width="32" height="32">
  <defs>
    <linearGradient id="brainGradient" x1="0%" y1="0%" x2="100%" y2="100%">
      <stop offset="0%" style="stop-color:#00d4ff;stop-opacity:1" />
      <stop offset="100%" style="stop-color:#9c88ff;stop-opacity:1" />
    </linearGradient>
  </defs>
  <path fill="url(#brainGradient)" d="M184 0c30.9 0 56 25.1 56 56c0 1.9-.1 3.7-.3 5.5c11.3 3.2 21.9 8.4 31.5 15.2c.1-2 .3-4 .3-6c0-30.9-25.1-56-56-56s-56 25.1-56 56c0 2 .2 4 .3 6c9.6-6.8 20.2-12 31.5-15.2c-.2-1.8-.3-3.6-.3-5.5c0-30.9 25.1-56 56-56zm144 0c30.9 0 56 25.1 56 56c0 1.9-.1 3.7-.3 5.5c11.3 3.2 21.9 8.4 31.5 15.2c.1-2 .3-4 .3-6c0-30.9-25.1-56-56-56s-56 25.1-56 56c0 2 .2 4 .3 6c9.6-6.8 20.2-12 31.5-15.2c-.2-1.8-.3-3.6-.3-5.5c0-30.9 25.1-56 56-56zM384 192c0-17.7-14.3-32-32-32s-32 14.3-32 32c0 1.9 .2 3.8 .5 5.6c37.9 8.8 71.3 25.2 98.9 47.9c5.6 4.7 9.5 11.1 11.9 18.2s2.2 14.8-.1 21.8c-22.1 66.3-81.5 112-152.2 112s-130-45.7-152.2-112c-2.3-7-.1-14.8 3.8-21.8s8.2-13.5 13.8-18.2c27.5-22.7 60.9-39.1 98.7-47.9c.4-1.8 .6-3.7 .6-5.6c0-17.7-14.3-32-32-32s-32 14.3-32 32c0 1.9 .2 3.8 .5 5.6c-37.9 8.8-71.3 25.2-98.9 47.9c-5.6 4.7-9.5 11.1-11.9 18.2s-2.2 14.8 .1 21.8C25.6 374.3 85 420 155.7 420s130-45.7 152.2-112c2.3-7 .1-14.8-3.8-21.8s-8.2-13.5-13.8-18.2c-27.5-22.7-60.9-39.1-98.7-47.9c-.4-1.8-.6-3.7-.6-5.6c0-17.7 14.3-32 32-32s32 14.3 32 32c0 1.9-.2 3.8-.5 5.6c37.9 8.8 71.3 25.2 98.9 47.9c5.6 4.7 9.5 11.1 11.9 18.2s2.2 14.8-.1 21.8C310.4 374.3 250 420 179.3 420s-130-45.7-152.2-112c-2.3-7-.1-14.8 3.8-21.8s8.2-13.5 13.8-18.2c27.5-22.7 60.9-39.1 98.7-47.9c.4-1.8 .6-3.7 .6-5.6c0-17.7 14.3-32 32-32s32 14.3 32 32c0 1.9-.2 3.8-.5 5.6c-37.9 8.8-71.3 25.2-98.9 47.9c-5.6 4.7-9.5 11.1-11.9 18.2s-2.2 14.8 .1 21.8C25.6 374.3 85 420 155.7 420s130-45.7 152.2-112c2.3-7 .1-14.8-3.8-21.8s-8.2-13.5-13.8-18.2c-27.5-22.7-60.9-39.1-98.7-47.9c-.4-1.8-.6-3.7-.6-5.6c0-17.7 14.3-32 32-32s32 14.3 32 32z"/>
</svg>
